<?xml version="1.0" standalone="no"?><!DOCTYPE svg PUBLIC "-//W3C//DTD SVG 1.1//EN" "http://www.w3.org/Graphics/SVG/1.1/DTD/svg11.dtd"><svg t="1543295186223" class="icon" style="" viewBox="0 0 1024 1024" version="1.1" xmlns="http://www.w3.org/2000/svg" p-id="993" xmlns:xlink="http://www.w3.org/1999/xlink" width="200" height="200"><defs><style type="text/css"></style></defs><path d="M678.61318 413.82912l-33.552164 21.125133c-28.999474-38.523385-68.765153-57.784054-119.296013-57.784054-39.764656 0-73.113181 12.737092-100.033297 38.2123-26.930349 25.475208-40.387849 57.066717-40.387849 94.754061 0 37.697577 13.251815 70.007447 39.765679 96.928586 26.503631 26.930349 60.054771 40.386826 100.655468 40.386826 48.463782 0 88.22946-19.260669 119.296013-57.783031l33.552164 22.367427c-16.572444 24.02723-38.83447 42.463114-66.793242 55.29742s-58.095139 19.261693-90.403986 19.261693c-50.949392 0-93.50972-16.776082-127.684054-50.328245s-51.260477-74.346265-51.260477-122.402771c0-48.872081 17.290805-90.609671 51.881624-125.199467 34.580586-34.58161 79.006402-51.881624 133.275399-51.881624 31.891338 0 61.404512 6.835685 88.539522 20.503986C643.29479 370.956683 664.108838 389.810077 678.61318 413.82912zM510.5423 192.284351c-176.401616 0-319.40354 143.002948-319.40354 319.404564 0 176.403662 143.001925 319.40354 319.40354 319.40354 176.404686 0 319.404564-142.999878 319.404564-319.40354C829.946864 335.287299 686.946986 192.284351 510.5423 192.284351zM510.543324 782.452665c-149.539828 0-270.764773-121.223922-270.764773-270.76375 0-149.537781 121.224945-270.764773 270.764773-270.764773 149.538805 0 270.76375 121.226992 270.76375 270.764773C781.307074 661.228743 660.082128 782.452665 510.543324 782.452665z" p-id="994"></path></svg>