<?xml version="1.0" standalone="no"?>
<!DOCTYPE svg PUBLIC "-//W3C//DTD SVG 20010904//EN"
 "http://www.w3.org/TR/2001/REC-SVG-20010904/DTD/svg10.dtd">
<svg version="1.0" xmlns="http://www.w3.org/2000/svg"
 width="248.000000pt" height="248.000000pt" viewBox="0 0 248.000000 248.000000"
 preserveAspectRatio="xMidYMid meet">
<metadata>
Created by potrace 1.14, written by Peter Selinger 2001-2017
</metadata>
<g transform="translate(0.000000,248.000000) scale(0.100000,-0.100000)"
fill="#000000" stroke="none">
<path d="M1289 2301 c-173 -69 -235 -155 -191 -262 16 -39 87 -92 172 -129 41
-18 77 -37 78 -41 2 -5 9 -9 15 -9 21 0 112 -68 181 -135 104 -101 188 -251
212 -382 10 -55 12 -213 3 -213 -5 0 -6 -6 -3 -14 9 -22 -34 -155 -73 -226
-82 -152 -195 -260 -358 -343 -114 -58 -172 -78 -305 -103 -66 -12 -252 -11
-332 3 -95 16 -213 55 -283 91 -85 45 -90 46 -65 14 64 -81 153 -164 247 -229
62 -42 234 -130 272 -138 9 -2 32 -9 51 -15 19 -6 51 -13 70 -16 19 -3 52 -9
72 -14 50 -10 312 -4 362 9 22 5 44 8 48 5 4 -3 8 -1 8 3 0 5 8 9 18 10 64 5
270 101 363 169 108 80 269 249 269 283 0 6 4 11 9 11 13 0 96 169 124 255 42
129 56 226 53 375 -1 75 -5 140 -8 145 -3 6 -9 26 -12 45 -10 65 -43 165 -79
243 -20 42 -38 77 -40 77 -3 0 -1 -17 4 -37 19 -85 24 -134 24 -263 0 -149 -3
-171 -40 -287 -30 -97 -86 -201 -138 -257 -21 -23 -31 -30 -23 -16 23 39 47
108 61 180 14 71 17 285 5 352 -4 24 -10 61 -14 83 -3 22 -16 83 -30 135 -14
52 -28 104 -31 115 -13 54 -99 240 -115 250 -6 4 -8 11 -5 16 4 5 2 9 -2 9 -5
0 -17 15 -28 33 -37 64 -147 160 -234 204 -77 38 -88 41 -164 41 -65 0 -96 -5
-148 -27z"/>
<path d="M983 2306 c-23 -8 -44 -12 -46 -10 -2 2 -34 -8 -73 -22 -38 -14 -82
-31 -99 -37 -16 -5 -46 -20 -65 -32 -19 -12 -42 -24 -50 -27 -8 -3 -51 -32
-95 -65 -92 -68 -195 -175 -254 -261 -33 -49 -103 -174 -107 -192 0 -3 -6 -18
-13 -35 -34 -81 -68 -246 -75 -370 -3 -57 14 -240 25 -252 2 -3 2 -5 13 -53
18 -81 85 -242 106 -255 6 -4 8 -10 5 -14 -2 -5 13 -26 34 -47 38 -39 100 -66
185 -79 65 -11 245 -13 294 -3 26 4 61 11 77 14 194 34 391 194 464 376 61
152 57 281 -15 433 -32 70 -165 209 -229 240 -22 11 -41 23 -43 28 -2 4 -10 7
-17 7 -24 0 -97 44 -146 88 -57 51 -109 149 -113 213 -7 132 76 256 222 330
34 18 62 34 62 35 0 2 -1 4 -2 3 -2 0 -22 -6 -45 -13z"/>
</g>
</svg>
